<svg width="980" height="1320" viewBox="0 0 980 1320" fill="none" xmlns="http://www.w3.org/2000/svg">
  <rect width="980" height="1320" rx="64" fill="#05070D"/>
  <rect x="24" y="24" width="932" height="1272" rx="48" fill="url(#paint0_linear_40_11)" stroke="rgba(255,255,255,0.1)"/>
  <circle cx="688" cy="278" r="244" fill="url(#paint1_radial_40_11)" fill-opacity="0.78"/>
  <circle cx="332" cy="1034" r="212" fill="url(#paint2_radial_40_11)" fill-opacity="0.3"/>
  <path d="M728 142C646.951 164.575 606.426 224.551 606.426 321.928C606.426 403.76 612.647 460.186 566.176 507.47C535.196 539 490.42 554.765 431.848 554.765" stroke="rgba(176,205,255,0.42)" stroke-width="2"/>
  <path d="M192 1162C252.324 1016.303 363.548 943.455 525.672 943.455C659.54 943.455 768.649 1000.836 816 1115.598" stroke="rgba(176,205,255,0.18)" stroke-width="2"/>
  <rect x="182" y="142" width="466" height="1038" rx="40" fill="url(#paint3_linear_40_11)" stroke="rgba(255,255,255,0.08)"/>
  <circle cx="432" cy="414" r="158" fill="url(#paint4_radial_40_11)"/>
  <path d="M310 472C319.159 342.785 382.175 278.177 499.046 278.177C542.67 278.177 581.662 292.514 616.021 321.188C594.13 300.839 570.248 290.664 544.375 290.664C505.416 290.664 457.605 335.517 409.742 335.517C375.099 335.517 342.785 324.39 312.801 302.136L310 472Z" fill="#10182A"/>
  <ellipse cx="428" cy="454" rx="104" ry="132" fill="#B3C9EB"/>
  <path d="M250 1084C256.67 948.771 320.887 881.156 442.648 881.156C564.408 881.156 630.19 948.771 640 1084H250Z" fill="#89A0CD"/>
  <path d="M290 1098C311.51 975.792 362.445 914.688 442.805 914.688C523.164 914.688 574.814 975.792 597.755 1098" stroke="rgba(255,255,255,0.18)" stroke-width="2"/>
  <path d="M250 1146H586" stroke="rgba(255,255,255,0.12)" stroke-width="2"/>
  <rect x="690" y="210" width="160" height="46" rx="23" fill="rgba(10,16,29,0.84)" stroke="rgba(255,255,255,0.1)"/>
  <text x="725" y="239" fill="#CED8EA" font-family="Arial, sans-serif" font-size="18" letter-spacing="0.18em">STUDIO</text>
  <rect x="688" y="840" width="168" height="196" rx="30" fill="rgba(10,16,29,0.72)" stroke="rgba(255,255,255,0.08)"/>
  <path d="M722 930H822" stroke="rgba(255,255,255,0.18)" stroke-width="2"/>
  <path d="M722 964H792" stroke="rgba(255,255,255,0.38)" stroke-width="6" stroke-linecap="round"/>
  <path d="M722 1004H808" stroke="rgba(255,255,255,0.18)" stroke-width="2"/>
  <defs>
    <linearGradient id="paint0_linear_40_11" x1="490" y1="24" x2="490" y2="1296" gradientUnits="userSpaceOnUse">
      <stop stop-color="#0A0E16"/>
      <stop offset="0.48" stop-color="#070B12"/>
      <stop offset="1" stop-color="#05070D"/>
    </linearGradient>
    <radialGradient id="paint1_radial_40_11" cx="0" cy="0" r="1" gradientUnits="userSpaceOnUse" gradientTransform="translate(688 278) rotate(90) scale(244)">
      <stop stop-color="#7FA6FF"/>
      <stop offset="1" stop-color="#7FA6FF" stop-opacity="0"/>
    </radialGradient>
    <radialGradient id="paint2_radial_40_11" cx="0" cy="0" r="1" gradientUnits="userSpaceOnUse" gradientTransform="translate(332 1034) rotate(90) scale(212)">
      <stop stop-color="#6C8AE6"/>
      <stop offset="1" stop-color="#6C8AE6" stop-opacity="0"/>
    </radialGradient>
    <linearGradient id="paint3_linear_40_11" x1="415" y1="142" x2="415" y2="1180" gradientUnits="userSpaceOnUse">
      <stop stop-color="#111826"/>
      <stop offset="0.55" stop-color="#0A101A"/>
      <stop offset="1" stop-color="#080C14"/>
    </linearGradient>
    <radialGradient id="paint4_radial_40_11" cx="0" cy="0" r="1" gradientUnits="userSpaceOnUse" gradientTransform="translate(432 454) rotate(90) scale(158)">
      <stop stop-color="#DEE8F8"/>
      <stop offset="1" stop-color="#9EB7DB"/>
    </radialGradient>
  </defs>
</svg>
