<svg width="1600" height="1800" viewBox="0 0 1600 1800" fill="none" xmlns="http://www.w3.org/2000/svg">
  <rect width="1600" height="1800" fill="#0C1014"/>
  <rect x="68" y="68" width="1464" height="1664" rx="36" fill="#11161B" stroke="rgba(255,255,255,0.08)"/>
  <path d="M1248 206L444 1588" stroke="rgba(255,255,255,0.08)" stroke-width="2"/>
  <path d="M1380 420L576 1802" stroke="rgba(255,255,255,0.06)" stroke-width="2"/>
  <rect x="186" y="202" width="1228" height="252" rx="30" fill="#0F1419" stroke="rgba(255,255,255,0.08)"/>
  <rect x="186" y="504" width="590" height="1060" rx="30" fill="url(#paint0_linear_4_2)"/>
  <rect x="822" y="504" width="592" height="318" rx="30" fill="#10161C" stroke="rgba(255,255,255,0.08)"/>
  <rect x="822" y="868" width="592" height="696" rx="30" fill="#10161C" stroke="rgba(255,255,255,0.08)"/>
  <circle cx="1122" cy="1248" r="260" fill="url(#paint1_radial_4_2)" fill-opacity="0.72"/>
  <path d="M264 298H520" stroke="rgba(255,255,255,0.16)" stroke-width="2"/>
  <path d="M264 354H648" stroke="#A9BCAB" stroke-width="8" stroke-linecap="round"/>
  <path d="M264 918H662" stroke="rgba(255,255,255,0.18)" stroke-width="2"/>
  <path d="M264 980H534" stroke="rgba(255,255,255,0.1)" stroke-width="2"/>
  <path d="M900 620H1258" stroke="rgba(255,255,255,0.18)" stroke-width="2"/>
  <path d="M900 1016H1260" stroke="#A9BCAB" stroke-width="8" stroke-linecap="round"/>
  <defs>
    <linearGradient id="paint0_linear_4_2" x1="186" y1="504" x2="776" y2="1564" gradientUnits="userSpaceOnUse">
      <stop stop-color="#182129"/>
      <stop offset="1" stop-color="#0E1419"/>
    </linearGradient>
    <radialGradient id="paint1_radial_4_2" cx="0" cy="0" r="1" gradientUnits="userSpaceOnUse" gradientTransform="translate(1122 1248) rotate(90) scale(260)">
      <stop stop-color="#A9BCAB"/>
      <stop offset="1" stop-color="#A9BCAB" stop-opacity="0"/>
    </radialGradient>
  </defs>
</svg>
