<svg width="1600" height="1400" viewBox="0 0 1600 1400" fill="none" xmlns="http://www.w3.org/2000/svg">
  <rect width="1600" height="1400" fill="#0B0F13"/>
  <rect x="70" y="70" width="1460" height="1260" rx="34" fill="#121820" stroke="rgba(255,255,255,0.08)"/>
  <rect x="168" y="188" width="1264" height="472" rx="30" fill="#10161C" stroke="rgba(255,255,255,0.08)"/>
  <rect x="168" y="734" width="680" height="448" rx="30" fill="#10161C" stroke="rgba(255,255,255,0.08)"/>
  <rect x="904" y="734" width="528" height="448" rx="30" fill="url(#paint0_linear_5_2)"/>
  <circle cx="1154" cy="958" r="220" fill="url(#paint1_radial_5_2)" fill-opacity="0.8"/>
  <path d="M264 316H694" stroke="rgba(255,255,255,0.16)" stroke-width="2"/>
  <path d="M264 382H510" stroke="#A9BCAB" stroke-width="8" stroke-linecap="round"/>
  <path d="M264 804H642" stroke="rgba(255,255,255,0.18)" stroke-width="2"/>
  <path d="M264 872H532" stroke="rgba(255,255,255,0.1)" stroke-width="2"/>
  <path d="M966 804H1256" stroke="rgba(255,255,255,0.18)" stroke-width="2"/>
  <path d="M966 870H1180" stroke="#A9BCAB" stroke-width="8" stroke-linecap="round"/>
  <path d="M1304 216C1172 328 1118 502 1110 662" stroke="rgba(255,255,255,0.12)" stroke-width="1.5"/>
  <defs>
    <linearGradient id="paint0_linear_5_2" x1="904" y1="734" x2="1432" y2="1182" gradientUnits="userSpaceOnUse">
      <stop stop-color="#1A232A"/>
      <stop offset="1" stop-color="#10161C"/>
    </linearGradient>
    <radialGradient id="paint1_radial_5_2" cx="0" cy="0" r="1" gradientUnits="userSpaceOnUse" gradientTransform="translate(1154 958) rotate(90) scale(220)">
      <stop stop-color="#A9BCAB"/>
      <stop offset="1" stop-color="#A9BCAB" stop-opacity="0"/>
    </radialGradient>
  </defs>
</svg>
